<svg width="17021" height="1418" viewBox="0 0 17021 1418" fill="none" xmlns="http://www.w3.org/2000/svg">
<rect width="17021" height="1418" fill="#282828"/>
<path d="M6535.79 660.567H6491.73V771.5H6428.4V496.134H6491.73V607.461H6537.37L6609.75 496.134H6677.02L6586.93 629.097L6679.77 771.5H6607.39L6535.79 660.567ZM7041.11 559.862V736.096C7041.11 774.909 7031.01 803.757 7010.82 822.639C6990.63 841.521 6961.12 850.963 6922.31 850.963C6901.85 850.963 6882.45 848.471 6864.09 843.488C6845.73 838.506 6830.52 831.294 6818.46 821.853L6842.85 777.794C6851.76 785.137 6863.04 790.907 6876.68 795.103C6890.31 799.561 6903.95 801.79 6917.59 801.79C6938.83 801.79 6954.43 796.939 6964.4 787.235C6974.63 777.794 6979.74 763.37 6979.74 743.963V734.916C6963.74 752.487 6941.45 761.272 6912.87 761.272C6893.46 761.272 6875.63 757.076 6859.37 748.684C6843.37 740.03 6830.65 727.966 6821.21 712.493C6811.77 697.02 6807.05 679.187 6807.05 658.993C6807.05 638.8 6811.77 620.967 6821.21 605.494C6830.65 590.021 6843.37 578.088 6859.37 569.696C6875.63 561.042 6893.46 556.715 6912.87 556.715C6943.55 556.715 6966.89 566.812 6982.89 587.005V559.862H7041.11ZM6925.06 710.92C6941.32 710.92 6954.57 706.199 6964.79 696.758C6975.28 687.055 6980.53 674.466 6980.53 658.993C6980.53 643.521 6975.28 631.064 6964.79 621.622C6954.57 611.919 6941.32 607.067 6925.06 607.067C6908.8 607.067 6895.43 611.919 6884.94 621.622C6874.45 631.064 6869.2 643.521 6869.2 658.993C6869.2 674.466 6874.45 687.055 6884.94 696.758C6895.43 706.199 6908.8 710.92 6925.06 710.92ZM7208.78 556.715C7231.33 556.715 7251 561.173 7267.78 570.09C7284.57 579.006 7297.55 591.726 7306.73 608.248C7315.91 624.769 7320.49 644.045 7320.49 666.074C7320.49 687.579 7316.17 706.592 7307.51 723.114C7298.86 739.374 7286.66 752.093 7270.93 761.272C7255.19 770.189 7237.1 774.647 7216.64 774.647C7189.63 774.647 7168.52 766.124 7153.31 749.077V847.816H7091.94V666.468C7091.94 644.701 7096.79 625.556 7106.5 609.034C7116.2 592.512 7129.84 579.662 7147.41 570.483C7164.98 561.304 7185.43 556.715 7208.78 556.715ZM7206.02 724.294C7222.02 724.294 7235 718.918 7244.97 708.166C7254.93 697.414 7259.91 683.383 7259.91 666.074C7259.91 648.503 7254.93 634.342 7244.97 623.589C7235 612.575 7222.02 607.067 7206.02 607.067C7190.02 607.067 7177.04 612.444 7167.08 623.196C7157.37 633.948 7152.52 648.11 7152.52 665.681C7152.52 683.252 7157.37 697.414 7167.08 708.166C7176.78 718.918 7189.76 724.294 7206.02 724.294ZM7575.77 559.862V736.096C7575.77 774.909 7565.93 803.757 7546.26 822.639C7526.59 841.521 7498.01 850.963 7460.51 850.963C7440.58 850.963 7421.69 848.471 7403.86 843.488C7386.29 838.506 7371.47 831.294 7359.41 821.853L7383.8 777.794C7392.71 785.137 7403.6 790.907 7416.45 795.103C7429.3 799.299 7442.28 801.397 7455.39 801.397C7475.85 801.397 7490.8 796.676 7500.24 787.235C7509.68 777.794 7514.4 763.37 7514.4 743.963V736.883C7506.53 744.75 7497.22 750.782 7486.47 754.978C7475.72 759.174 7464.18 761.272 7451.85 761.272C7424.05 761.272 7402.02 753.405 7385.76 737.669C7369.51 721.672 7361.38 697.807 7361.38 666.074V559.862H7422.74V657.027C7422.74 691.382 7437.04 708.559 7465.62 708.559C7480.31 708.559 7492.11 703.839 7501.03 694.398C7509.94 684.694 7514.4 670.401 7514.4 651.519V559.862H7575.77ZM7803.35 610.214H7694.77V771.5H7633.8V559.862H7803.35V610.214ZM8044.75 559.862V771.5H7986.14V746.717C7978.27 755.896 7968.57 762.846 7957.03 767.566C7945.75 772.287 7933.69 774.647 7920.84 774.647C7893.04 774.647 7870.88 766.648 7854.36 750.651C7838.1 734.653 7829.97 710.92 7829.97 679.449V559.862H7891.33V670.401C7891.33 704.494 7905.63 721.541 7934.21 721.541C7949.16 721.541 7961.09 716.82 7970.01 707.379C7978.93 697.676 7983.38 683.383 7983.38 664.501V559.862H8044.75ZM8309.77 771.5V644.832L8246.43 751.044H8220.47L8158.71 644.438V771.5H8103.24V559.862H8167.36L8235.02 682.203L8307.01 559.862H8364.45L8365.23 771.5H8309.77ZM8636.13 774.647C8613.57 774.647 8593.25 770.058 8575.15 760.879C8557.32 751.438 8543.29 738.456 8533.06 721.934C8523.1 705.412 8518.11 686.661 8518.11 665.681C8518.11 644.701 8523.1 625.95 8533.06 609.428C8543.29 592.906 8557.32 580.055 8575.15 570.877C8593.25 561.435 8613.57 556.715 8636.13 556.715C8658.42 556.715 8677.83 561.435 8694.35 570.877C8711.13 580.055 8723.33 593.299 8730.93 610.608L8683.33 636.177C8672.32 616.771 8656.45 607.067 8635.73 607.067C8619.74 607.067 8606.49 612.312 8596 622.803C8585.51 633.293 8580.27 647.585 8580.27 665.681C8580.27 683.776 8585.51 698.069 8596 708.559C8606.49 719.049 8619.74 724.294 8635.73 724.294C8656.71 724.294 8672.58 714.591 8683.33 695.184L8730.93 721.147C8723.33 737.932 8711.13 751.044 8694.35 760.485C8677.83 769.926 8658.42 774.647 8636.13 774.647ZM9038.87 556.715C9065.36 556.715 9086.34 564.582 9101.81 580.318C9117.54 595.791 9125.41 619.131 9125.41 650.339V771.5H9064.04V659.78C9064.04 642.996 9060.5 630.539 9053.42 622.409C9046.6 614.017 9036.77 609.821 9023.92 609.821C9009.5 609.821 8998.09 614.542 8989.7 623.983C8981.3 633.162 8977.11 646.93 8977.11 665.288V771.5H8915.74V659.78C8915.74 626.474 8902.37 609.821 8875.62 609.821C8861.45 609.821 8850.18 614.542 8841.78 623.983C8833.39 633.162 8829.2 646.93 8829.2 665.288V771.5H8767.83V559.862H8826.44V584.251C8834.31 575.335 8843.88 568.516 8855.16 563.796C8866.7 559.075 8879.29 556.715 8892.92 556.715C8907.87 556.715 8921.38 559.731 8933.44 565.763C8945.51 571.532 8955.21 580.055 8962.55 591.332C8971.21 580.318 8982.09 571.794 8995.2 565.763C9008.58 559.731 9023.13 556.715 9038.87 556.715ZM9392.49 559.862V771.5H9333.88V747.11C9318.67 765.468 9296.64 774.647 9267.79 774.647C9247.86 774.647 9229.77 770.189 9213.51 761.272C9197.51 752.356 9184.92 739.636 9175.74 723.114C9166.56 706.592 9161.97 687.448 9161.97 665.681C9161.97 643.914 9166.56 624.769 9175.74 608.248C9184.92 591.726 9197.51 579.006 9213.51 570.09C9229.77 561.173 9247.86 556.715 9267.79 556.715C9294.81 556.715 9315.92 565.238 9331.13 582.285V559.862H9392.49ZM9278.41 724.294C9293.89 724.294 9306.74 719.049 9316.97 708.559C9327.19 697.807 9332.31 683.514 9332.31 665.681C9332.31 647.848 9327.19 633.686 9316.97 623.196C9306.74 612.444 9293.89 607.067 9278.41 607.067C9262.68 607.067 9249.7 612.444 9239.47 623.196C9229.24 633.686 9224.13 647.848 9224.13 665.681C9224.13 683.514 9229.24 697.807 9239.47 708.559C9249.7 719.049 9262.68 724.294 9278.41 724.294ZM9721.14 556.715C9747.62 556.715 9768.6 564.582 9784.08 580.318C9799.81 595.791 9807.68 619.131 9807.68 650.339V771.5H9746.31V659.78C9746.31 642.996 9742.77 630.539 9735.69 622.409C9728.87 614.017 9719.04 609.821 9706.19 609.821C9691.76 609.821 9680.35 614.542 9671.96 623.983C9663.57 633.162 9659.37 646.93 9659.37 665.288V771.5H9598.01V659.78C9598.01 626.474 9584.63 609.821 9557.88 609.821C9543.72 609.821 9532.44 614.542 9524.05 623.983C9515.66 633.162 9511.46 646.93 9511.46 665.288V771.5H9450.1V559.862H9508.71V584.251C9516.58 575.335 9526.15 568.516 9537.43 563.796C9548.97 559.075 9561.55 556.715 9575.19 556.715C9590.14 556.715 9603.65 559.731 9615.71 565.763C9627.77 571.532 9637.48 580.055 9644.82 591.332C9653.47 580.318 9664.36 571.794 9677.47 565.763C9690.84 559.731 9705.4 556.715 9721.14 556.715ZM9958.32 777.401C9924.75 777.401 9899.31 769.926 9882.01 754.978C9864.96 740.03 9856.44 718 9856.44 688.89V559.862H9917.41V631.457C9923.97 626.736 9932.36 623.065 9942.59 620.442C9953.08 617.82 9964.75 616.509 9977.6 616.509C10004.1 616.509 10024.8 623.065 10039.8 636.177C10054.7 649.29 10062.2 668.435 10062.2 693.611C10062.2 720.623 10052.9 741.341 10034.2 755.765C10015.9 770.189 9990.58 777.401 9958.32 777.401ZM9958.32 734.129C9971.43 734.129 9981.53 730.589 9988.61 723.508C9995.95 716.427 9999.63 706.855 9999.63 694.791C9999.63 683.252 9996.09 674.204 9989 667.648C9982.19 661.092 9972.35 657.813 9959.5 657.813C9950.06 657.813 9941.67 659.518 9934.33 662.927C9926.98 666.337 9921.34 671.188 9917.41 677.482V694.791C9917.41 707.117 9920.95 716.82 9928.03 723.901C9935.37 730.72 9945.47 734.129 9958.32 734.129ZM10275.1 559.862V771.5H10220.4V710.92H10175.2L10135 771.5H10069.7L10118.1 702.265C10103.4 696.496 10092.2 688.235 10084.3 677.482C10076.7 666.468 10072.9 653.224 10072.9 637.751C10072.9 612.837 10081.8 593.693 10099.6 580.318C10117.7 566.68 10142.5 559.862 10174 559.862H10275.1ZM10175.2 609.821C10162 609.821 10152.1 612.181 10145.3 616.902C10138.7 621.622 10135.4 629.228 10135.4 639.718C10135.4 650.208 10138.6 657.944 10144.9 662.927C10151.4 667.648 10161.3 670.008 10174.4 670.008H10220.4V609.821H10175.2ZM10540.6 771.5V644.832L10477.2 751.044H10451.3L10389.5 644.438V771.5H10334.1V559.862H10398.2L10465.8 682.203L10537.8 559.862H10595.3L10596 771.5H10540.6Z" fill="#F7F7F7"/>
<path d="M6729.78 1215.09C7122.66 1082.75 8496.48 842.892 10848.8 942.142" stroke="#F5A925" stroke-width="25" stroke-linecap="round"/>
<path d="M7182.91 1258.05C7430.72 1162.43 8297.29 989.11 9781.05 1060.83" stroke="#F5A925" stroke-width="25" stroke-linecap="round"/>
<path d="M8080.15 312.117L8044.69 379.407C8004.62 455.445 7970.48 534.462 7942.58 615.754L7916.41 691.992" stroke="#F7F7F7" stroke-width="13.0991" stroke-linecap="round"/>
<path d="M7988.96 396.259C8003.67 416.784 8007.65 437.607 8005.74 449.222C8005.41 451.199 8003.23 452.076 8001.54 450.986C7970.6 430.924 7973.08 374.089 7988.96 396.259Z" fill="#F7F7F7" stroke="#F7F7F7" stroke-width="9.82434"/>
<path d="M8017.6 502.818C8004.81 523.953 7990.29 523.542 7982.14 519.588C7980.24 518.667 7980.23 516.163 7981.9 514.875C8001.45 499.805 8031.69 479.513 8017.6 502.818Z" fill="#F7F7F7" stroke="#F7F7F7" stroke-width="9.82434"/>
<path d="M8124.56 195.351C8142.49 182 8167.74 196.328 8165.48 218.569V218.569C8164.19 231.155 8172.26 242.803 8184.5 246.025V246.025C8206.11 251.72 8210.65 280.394 8191.85 292.489V292.489C8181.21 299.334 8177.14 312.904 8182.24 324.478V324.478C8191.27 344.931 8171.68 366.358 8150.5 359.2V359.2C8138.52 355.148 8125.37 360.423 8119.5 371.633V371.633C8109.14 391.442 8080.18 389.487 8072.57 368.466V368.466C8068.26 356.57 8055.94 349.576 8043.52 351.981V351.981C8021.57 356.23 8005.04 332.365 8016.73 313.31V313.31C8023.35 302.527 8021.13 288.532 8011.51 280.321V280.321C7994.5 265.81 8002.85 238.005 8025.04 235.266V235.266C8037.6 233.716 8047.16 223.258 8047.58 210.614V210.614C8048.32 188.27 8075.26 177.463 8091.24 193.102V193.102C8100.28 201.953 8114.41 202.906 8124.56 195.351V195.351Z" fill="#F5A925"/>
<path d="M8142.16 236.625C8157.08 233.952 8168.06 250.288 8159.95 263.096V263.096C8155.36 270.344 8156.73 279.853 8163.18 285.511V285.511C8174.57 295.51 8168.65 314.282 8153.58 315.929V315.929C8145.05 316.861 8138.47 323.861 8138.07 332.43V332.43C8137.36 347.571 8118.99 354.643 8108.3 343.889V343.889C8102.26 337.804 8092.68 337.023 8085.73 342.05V342.05C8073.45 350.932 8056.47 340.979 8058.21 325.922V325.922C8059.2 317.401 8053.84 309.428 8045.58 307.128V307.128C8030.97 303.062 8028.17 283.579 8041.03 275.557V275.557C8048.31 271.017 8051.2 261.855 8047.84 253.96V253.96C8041.92 240.008 8055.4 225.666 8069.69 230.72V230.72C8077.78 233.58 8086.74 230.128 8090.83 222.584V222.584C8098.04 209.251 8117.66 210.85 8122.62 225.174V225.174C8125.42 233.28 8133.71 238.138 8142.16 236.625V236.625Z" fill="#F7F7F7"/>
<path d="M8112.74 247.025C8119.09 243.083 8127.29 247.735 8127.17 255.21L8126.96 267.07C8126.92 269.906 8128.15 272.614 8130.31 274.445L8139.38 282.098C8145.09 286.922 8143.2 296.154 8136.05 298.344L8124.71 301.819C8122 302.65 8119.8 304.656 8118.73 307.283L8114.25 318.267C8111.43 325.19 8102.06 326.245 8097.77 320.123L8090.96 310.41C8089.33 308.087 8086.75 306.619 8083.92 306.412L8072.09 305.548C8064.63 305.003 8060.73 296.422 8065.23 290.448L8072.36 280.971C8074.07 278.705 8074.67 275.791 8073.99 273.036L8071.16 261.518C8069.37 254.258 8076.33 247.9 8083.4 250.33L8094.61 254.185C8097.3 255.108 8100.25 254.775 8102.66 253.279L8112.74 247.025Z" fill="#F5A925"/>
</svg>
